<svg version="1.0" xmlns="http://www.w3.org/2000/svg"
     width="200.000000pt" height="200.000000pt" viewBox="0 0 200.000000 200.000000"
     preserveAspectRatio="xMidYMid meet">
  <g transform="translate(0.000000,200.000000) scale(0.100000,-0.100000)" stroke="none">

    <g arrowDirection="up">
      <path d="M761 1576 c-8 -9 -11 -87 -9 -262 l3 -249 260 0 260 0 3 249 c2 175
-1 253 -9 262 -9 11 -60 14 -254 14 -194 0 -245 -3 -254 -14z m449 -256 l0
-190 -195 0 -195 0 0 190 0 190 195 0 195 0 0 -190z"/>
      <path d="M943 1347 c-57 -58 -63 -68 -53 -86 15 -30 40 -26 86 13 l39 33 39
-33 c45 -39 71 -43 86 -14 9 17 4 28 -42 76 -81 86 -79 86 -155 11z"/>
    </g>

    <g arrowDirection="down">
      <path d="M757 993 c-4 -3 -7 -118 -7 -254 0 -235 1 -249 19 -259 30 -15 472
-13 494 3 16 11 17 36 15 262 l-3 250 -256 3 c-140 1 -258 -1 -262 -5z m453
-253 l0 -190 -195 0 -195 0 0 190 0 190 195 0 195 0 0 -190z"/>
      <path d="M897 813 c-20 -19 -2 -53 56 -111 l63 -62 69 70 c59 59 68 73 59 88
-19 30 -44 26 -85 -14 l-39 -38 -38 37 c-35 34 -69 46 -85 30z"/>
    </g>


    <path d="M167 993 c-4 -3 -7 -118 -7 -254 0 -235 1 -249 19 -259 30 -15 472
-13 494 3 16 11 17 36 15 262 l-3 250 -256 3 c-140 1 -258 -1 -262 -5z m453
-253 l0 -190 -195 0 -195 0 0 190 0 190 195 0 195 0 0 -190z"/>
    <path d="M400 805 c-71 -74 -71 -60 10 -148 46 -50 67 -62 86 -46 24 19 16 53
-21 89 l-34 33 34 40 c37 43 43 65 23 85 -21 21 -33 14 -98 -53z"/>
    <path d="M1340 746 c0 -242 1 -256 19 -266 30 -15 472 -13 494 2 16 12 17 37
15 263 l-3 250 -262 3 -263 2 0 -254z m460 -6 l0 -190 -195 0 -195 0 0 190 0
190 195 0 195 0 0 -190z"/>
    <path d="M1532 858 c-20 -20 -13 -46 23 -86 l34 -39 -34 -33 c-37 -36 -45 -70
-21 -89 19 -16 40 -4 86 46 81 88 81 74 10 148 -65 67 -77 74 -98 53z"/>

  </g>
</svg>
