<svg version="1.0" xmlns="http://www.w3.org/2000/svg"
 width="980.000000pt" height="916.000000pt" viewBox="0 0 980.000000 916.000000"
 preserveAspectRatio="xMidYMid meet">
<g transform="translate(0.000000,916.000000) scale(0.100000,-0.100000)"
fill="#000000" stroke="none">
<path d="M4886 9153 c-29 -7 -1177 -776 -1611 -1078 -203 -142 -770 -539
-1260 -883 -490 -345 -1079 -758 -1310 -920 -231 -162 -450 -319 -488 -349
-85 -70 -140 -138 -183 -228 -37 -76 -43 -127 -19 -172 8 -15 25 -54 36 -85
41 -117 165 -214 304 -239 125 -23 223 9 383 124 199 143 377 257 401 257 8 0
11 -701 11 -2502 -1 -2474 0 -2504 19 -2581 36 -139 121 -267 234 -353 110
-83 210 -118 382 -134 130 -12 6070 -13 6225 -1 64 5 145 17 180 26 198 50
363 193 431 374 57 152 53 -36 59 2673 3 1367 8 2490 12 2494 9 8 100 -46 218
-131 154 -111 272 -187 339 -219 59 -28 76 -31 157 -31 84 0 95 3 166 38 93
46 166 121 199 205 18 44 23 78 23 152 1 88 -2 101 -31 161 -41 82 -97 136
-273 260 -231 164 -1065 748 -1286 902 -116 80 -223 159 -238 174 -62 62 -60
31 -61 698 -2 600 -3 611 -24 674 -53 153 -162 244 -323 271 -82 13 -335 13
-418 -1 -182 -29 -311 -158 -340 -339 -5 -36 -10 -159 -10 -273 l0 -208 -77
56 c-73 51 -265 180 -1335 901 -241 162 -446 293 -455 293 -10 -1 -27 -4 -37
-6z m115 -961 c24 -16 402 -280 839 -588 437 -308 1049 -737 1359 -954 311
-217 584 -414 607 -438 24 -23 49 -59 56 -80 11 -30 13 -511 13 -2660 l0
-2624 -28 -24 -28 -24 -599 0 c-614 0 -638 1 -657 39 -4 9 -10 651 -13 1426
-6 1567 -1 1452 -73 1590 -64 121 -213 235 -382 292 l-80 27 -1090 4 c-1215 4
-1172 6 -1315 -64 -99 -49 -223 -170 -269 -264 -68 -141 -63 -29 -70 -1592 -6
-1343 -7 -1418 -24 -1435 -17 -17 -56 -18 -638 -18 l-621 0 -19 24 c-19 23
-19 75 -21 2305 -2 1254 -3 2432 -3 2616 0 381 2 394 78 467 23 22 330 242
682 488 352 247 960 674 1350 949 391 275 732 515 759 533 64 44 123 45 187 5z
m720 -4811 l24 -19 0 -1256 0 -1255 -23 -23 -23 -23 -789 0 -789 0 -23 23 -23
23 0 1250 0 1251 28 24 28 24 783 0 c757 0 785 -1 807 -19z"/>
</g>
</svg>
